<svg xmlns="http://www.w3.org/2000/svg" width="49" height="35" viewBox="0 0 49 35">
  <g fill="none" fill-rule="evenodd" transform="translate(0 -1)">
    <path fill="#8375D2" fill-rule="nonzero" d="M24.3913043,35.9347826 C11.38003,35.9347826 0.717391304,28.795717 0.717391304,19.7608696 C0.717391304,10.7260221 11.38003,3.58695652 24.3913043,3.58695652 C37.4025787,3.58695652 48.0652174,10.7260221 48.0652174,19.7608696 C48.0652174,28.795717 37.4025787,35.9347826 24.3913043,35.9347826 Z M24.3913043,33.9782609 C36.4489552,33.9782609 46.1086957,27.510676 46.1086957,19.7608696 C46.1086957,12.0110631 36.4489552,5.54347826 24.3913043,5.54347826 C12.3336535,5.54347826 2.67391304,12.0110631 2.67391304,19.7608696 C2.67391304,27.510676 12.3336535,33.9782609 24.3913043,33.9782609 Z"/>
    <path fill="#8375D2" fill-rule="nonzero" d="M45.8478261 21.1304348C45.8478261 16.5569054 42.1387468 12.8478261 37.5652174 12.8478261 32.991688 12.8478261 29.2826087 16.5569054 29.2826087 21.1304348 29.2826087 25.7039642 32.991688 29.4130435 37.5652174 29.4130435 42.1387468 29.4130435 45.8478261 25.7039642 45.8478261 21.1304348zM48.8478261 21.1304348C48.8478261 27.3608184 43.795601 32.4130435 37.5652174 32.4130435 31.3348337 32.4130435 26.2826087 27.3608184 26.2826087 21.1304348 26.2826087 14.9000511 31.3348337 9.84782609 37.5652174 9.84782609 43.795601 9.84782609 48.8478261 14.9000511 48.8478261 21.1304348zM19.6304348 21.1304348C19.6304348 16.5569054 15.9213555 12.8478261 11.3478261 12.8478261 6.77429669 12.8478261 3.06521739 16.5569054 3.06521739 21.1304348 3.06521739 25.7039642 6.77429669 29.4130435 11.3478261 29.4130435 15.9213555 29.4130435 19.6304348 25.7039642 19.6304348 21.1304348zM22.6304348 21.1304348C22.6304348 27.3608184 17.5782097 32.4130435 11.3478261 32.4130435 5.11744244 32.4130435.0652173913 27.3608184.0652173913 21.1304348.0652173913 14.9000511 5.11744244 9.84782609 11.3478261 9.84782609 17.5782097 9.84782609 22.6304348 14.9000511 22.6304348 21.1304348z"/>
    <path fill="#8874D6" d="M22.6680706,27.360936 L22.8283949,27.2409266 L22.8283949,27.2409266 C23.7930528,26.5188406 25.1181915,26.5188406 26.0828493,27.2409266 L26.0828493,27.2409266 L26.0828493,27.2409266 C26.7555578,27.7444766 26.8926879,28.6980225 26.3891379,29.370731 C26.3021716,29.4869121 26.1990304,29.5900533 26.0828493,29.6770196 L25.922525,29.7970289 L25.922525,29.7970289 C24.9578672,30.519115 23.6327285,30.519115 22.6680706,29.7970289 L22.6680706,29.7970289 L22.6680706,29.7970289 C21.9953621,29.293479 21.8582321,28.3399331 22.361782,27.6672246 C22.4487484,27.5510435 22.5518895,27.4479023 22.6680706,27.360936 Z"/>
    <polygon fill="#8874D6" points="9.783 5.739 13.547 .913 17.311 5.739" transform="rotate(-15 13.547 3.326)"/>
    <polygon fill="#8874D6" points="31.565 5.739 35.329 .913 39.094 5.739" transform="scale(-1 1) rotate(-15 0 271.68)"/>
    <path fill="#7F76CE" d="M42.1304348,19.9565217 C42.1304348,23.0536435 40.1737435,25.5652174 37.7608696,25.5652174 C35.3479957,25.5652174 33.3913043,23.0536435 33.3913043,19.9565217 C33.3913043,16.8594 35.3479957,14.3478261 37.7608696,14.3478261 C40.1737435,14.3478261 42.1304348,16.8594 42.1304348,19.9565217 L42.1304348,19.9565217 Z"/>
    <path fill="#8375D2" d="M15.7826087,19.9565217 C15.7826087,23.0536435 13.8259174,25.5652174 11.4130435,25.5652174 C9.00016957,25.5652174 7.04347826,23.0536435 7.04347826,19.9565217 C7.04347826,16.8594 9.00016957,14.3478261 11.4130435,14.3478261 C13.8259174,14.3478261 15.7826087,16.8594 15.7826087,19.9565217 L15.7826087,19.9565217 Z"/>
    <path fill="#8874D6" fill-rule="nonzero" d="M27.7826087,26.0869565 C30.3039086,26.0869565 32.3478261,24.0430391 32.3478261,21.5217391 C32.3478261,19.5108701 31.8064075,17.5889768 30.6314675,16.032902 C29.1841942,14.1161523 26.9743024,13.0434783 24.4565217,13.0434783 C21.9387411,13.0434783 19.7288492,14.1161523 18.2815759,16.032902 C17.106636,17.5889768 16.5652174,19.5108701 16.5652174,21.5217391 C16.5652174,24.0430391 18.6091348,26.0869565 21.1304348,26.0869565 C22.4417097,26.0869565 23.6238613,25.5341135 24.4565217,24.648795 C25.2891822,25.5341135 26.4713337,26.0869565 27.7826087,26.0869565 Z"/>
    <path fill="#8874D6" fill-rule="nonzero" d="M11.3478261 28.4347826C7.313442 28.4347826 4.04347826 25.1648189 4.04347826 21.1304348 4.04347826 20.5541377 4.51065939 20.0869565 5.08695652 20.0869565 5.66325365 20.0869565 6.13043478 20.5541377 6.13043478 21.1304348 6.13043478 24.0122246 8.46603626 26.3478261 11.3478261 26.3478261 14.2296159 26.3478261 16.5652174 24.0122246 16.5652174 21.1304348 16.5652174 20.5541377 17.0323985 20.0869565 17.6086957 20.0869565 18.1849928 20.0869565 18.6521739 20.5541377 18.6521739 21.1304348 18.6521739 25.1648189 15.3822102 28.4347826 11.3478261 28.4347826zM37.5652174 28.4347826C33.5308333 28.4347826 30.2608696 25.1648189 30.2608696 21.1304348 30.2608696 20.5541377 30.7280507 20.0869565 31.3043478 20.0869565 31.880645 20.0869565 32.3478261 20.5541377 32.3478261 21.1304348 32.3478261 24.0122246 34.6834275 26.3478261 37.5652173 26.3478261 40.4470072 26.3478261 42.7826087 24.0122246 42.7826087 21.1304348 42.7826087 20.5541377 43.2497898 20.0869565 43.826087 20.0869565 44.4023841 20.0869565 44.8695652 20.5541377 44.8695652 21.1304348 44.8695652 25.1648189 41.5996015 28.4347826 37.5652174 28.4347826z"/>
    <circle cx="11.283" cy="16.37" r="2.413" fill="#FFF"/>
    <circle cx="37.5" cy="16.37" r="2.413" fill="#FFF"/>
  </g>
</svg>
